# xmcd
#
# Track frame offsets: 
#        150
#        25467
#        54005
#        69920
#        109095
#        139535
#        163337
#        188140
#
# Disc length: 2798 seconds
#
# Revision: 4
# Processed by: cddbd v1.5.2PL0 Copyright (c) Steve Scherf et al.
# Submitted via: ExactAudioCopy v0.95b4
#
DISCID=650aec08
DTITLE=Grace Jones - Warm Leatherette
DYEAR=1980
DGENRE=Pop/Funk
TTITLE0=Warm Leatherette
TTITLE1=Private Life
TTITLE2=A Rolling Stone
TTITLE3=Love Is The Drug
TTITLE4=The Hunter Gets Captured By The Game
TTITLE5=Bullshit
TTITLE6=Breakdown
TTITLE7=Pars
EXTD=Island
EXTT0=
EXTT1=
EXTT2=
EXTT3=
EXTT4=
EXTT5=
EXTT6=
EXTT7=
PLAYORDER=
